<svg xmlns="http://www.w3.org/2000/svg" version="1.1" xmlns:xlink="http://www.w3.org/1999/xlink" width="1000" height="1000"><style>
    #light-icon {
      display: inline;
    }
    #dark-icon {
      display: none;
    }

    @media (prefers-color-scheme: dark) {
      #light-icon {
        display: none;
      }
      #dark-icon {
        display: inline;
      }
    }
  </style><g id="light-icon"><svg xmlns="http://www.w3.org/2000/svg" version="1.1" xmlns:xlink="http://www.w3.org/1999/xlink" width="1000" height="1000"><g clip-path="url(#SvgjsClipPath1023)"><rect width="1000" height="1000" fill="#263f52"></rect><g transform="matrix(5,0,0,5,0,0)"><svg xmlns="http://www.w3.org/2000/svg" version="1.1" xmlns:xlink="http://www.w3.org/1999/xlink" width="200" height="200"><svg xmlns="http://www.w3.org/2000/svg" version="1.1" xmlns:xlink="http://www.w3.org/1999/xlink" viewBox="0 0 200 200"><rect width="200" height="200" fill="url('#gradient')"></rect><defs><linearGradient id="gradient" gradientTransform="rotate(45 0.5 0.5)"><stop offset="0%" stop-color="#263f52"></stop><stop offset="100%" stop-color="#263f52"></stop></linearGradient><clipPath id="SvgjsClipPath1023"><rect width="1000" height="1000" x="0" y="0" rx="350" ry="350"></rect></clipPath></defs><g><g fill="#d13a1e" transform="matrix(2.7105882352941175,0,0,2.7105882352941175,7.092241263389596,113.4857614292818)" stroke="#000000" stroke-width="0.2"><path d="M6.69-4.82L4.50-4.82L4.50 0L1.07 0L1.07-14.22L6.75-14.22Q8.38-14.22 9.63-13.62Q10.89-13.02 11.58-11.91Q12.27-10.80 12.27-9.39L12.27-9.39Q12.27-7.31 10.78-6.07Q9.29-4.82 6.69-4.82L6.69-4.82ZM4.50-11.57L4.50-7.47L6.75-7.47Q7.74-7.47 8.27-7.97Q8.79-8.47 8.79-9.38L8.79-9.38Q8.79-10.37 8.25-10.97Q7.71-11.56 6.79-11.57L6.79-11.57L4.50-11.57ZM19.47-2.97L19.47-2.97Q19.47-3.39 19.03-3.64Q18.59-3.90 17.36-4.17Q16.13-4.44 15.33-4.89Q14.53-5.33 14.11-5.97Q13.69-6.60 13.69-7.42L13.69-7.42Q13.69-8.88 14.89-9.82Q16.09-10.76 18.04-10.76L18.04-10.76Q20.13-10.76 21.40-9.81Q22.67-8.87 22.67-7.32L22.67-7.32L19.37-7.32Q19.37-8.59 18.03-8.59L18.03-8.59Q17.51-8.59 17.16-8.31Q16.81-8.02 16.81-7.59L16.81-7.59Q16.81-7.15 17.24-6.88Q17.67-6.60 18.61-6.43Q19.55-6.25 20.26-6.01L20.26-6.01Q22.65-5.19 22.65-3.07L22.65-3.07Q22.65-1.62 21.36-0.71Q20.08 0.20 18.04 0.20L18.04 0.20Q16.68 0.20 15.62-0.29Q14.55-0.78 13.96-1.62Q13.36-2.46 13.36-3.39L13.36-3.39L16.44-3.39Q16.46-2.66 16.92-2.32Q17.39-1.98 18.13-1.98L18.13-1.98Q18.80-1.98 19.14-2.26Q19.47-2.53 19.47-2.97ZM26.74-10.57L28.41-4.61L30.17-10.57L33.69-10.57L29.38 1.77L29.20 2.22Q28.28 4.27 25.96 4.27L25.96 4.27Q25.31 4.27 24.60 4.07L24.60 4.07L24.60 1.72L25.03 1.72Q25.72 1.72 26.09 1.52Q26.46 1.32 26.63 0.80L26.63 0.80L26.89 0.10L23.22-10.57L26.74-10.57ZM42.49 0L39.98-5.02L38.13-5.02L38.13 0L34.70 0L34.70-14.22L40.29-14.22Q42.82-14.22 44.25-13.10Q45.67-11.97 45.67-9.92L45.67-9.92Q45.67-8.44 45.07-7.46Q44.47-6.48 43.19-5.88L43.19-5.88L46.16-0.15L46.16 0L42.49 0ZM38.13-11.57L38.13-7.67L40.29-7.67Q41.27-7.67 41.76-8.18Q42.26-8.69 42.26-9.61Q42.26-10.53 41.76-11.05Q41.26-11.57 40.29-11.57L40.29-11.57L38.13-11.57ZM52.71 0.20L52.71 0.20Q50.27 0.20 48.77-1.25Q47.27-2.71 47.27-5.03L47.27-5.03L47.27-5.30Q47.27-6.92 47.87-8.16Q48.47-9.40 49.62-10.08Q50.77-10.76 52.35-10.76L52.35-10.76Q54.58-10.76 55.87-9.38Q57.16-8.00 57.16-5.53L57.16-5.53L57.16-4.25L50.62-4.25Q50.79-3.36 51.39-2.85Q51.98-2.34 52.93-2.34L52.93-2.34Q54.49-2.34 55.37-3.44L55.37-3.44L56.88-1.66Q56.26-0.81 55.13-0.31Q54.00 0.20 52.71 0.20ZM52.33-8.22L52.33-8.22Q50.89-8.22 50.62-6.31L50.62-6.31L53.94-6.31L53.94-6.56Q53.96-7.35 53.54-7.79Q53.12-8.22 52.33-8.22ZM62.95-2.34L62.95-2.34Q63.64-2.34 64.02-2.72Q64.40-3.10 64.39-3.77L64.39-3.77L67.48-3.77Q67.48-2.03 66.24-0.92Q64.99 0.20 63.03 0.20L63.03 0.20Q60.72 0.20 59.39-1.25Q58.07-2.70 58.07-5.25L58.07-5.25L58.07-5.39Q58.07-6.99 58.66-8.22Q59.25-9.44 60.36-10.10Q61.47-10.76 63.00-10.76L63.00-10.76Q65.06-10.76 66.27-9.62Q67.48-8.48 67.48-6.52L67.48-6.52L64.39-6.52Q64.39-7.34 63.99-7.78Q63.59-8.22 62.92-8.22L62.92-8.22Q61.64-8.22 61.43-6.59L61.43-6.59Q61.36-6.07 61.36-5.17L61.36-5.17Q61.36-3.57 61.74-2.96Q62.12-2.34 62.95-2.34Z"></path></g></g></svg></svg></g></g></svg></g><g id="dark-icon"><svg xmlns="http://www.w3.org/2000/svg" version="1.1" xmlns:xlink="http://www.w3.org/1999/xlink" width="1000" height="1000"><g clip-path="url(#SvgjsClipPath1024)"><rect width="1000" height="1000" fill="#263f52"></rect><g transform="matrix(5,0,0,5,0,0)"><svg xmlns="http://www.w3.org/2000/svg" version="1.1" xmlns:xlink="http://www.w3.org/1999/xlink" width="200" height="200"><svg xmlns="http://www.w3.org/2000/svg" version="1.1" xmlns:xlink="http://www.w3.org/1999/xlink" viewBox="0 0 200 200"><rect width="200" height="200" fill="url('#gradient')"></rect><defs><linearGradient id="gradient" gradientTransform="rotate(45 0.5 0.5)"><stop offset="0%" stop-color="#263f52"></stop><stop offset="100%" stop-color="#263f52"></stop></linearGradient><clipPath id="SvgjsClipPath1024"><rect width="1000" height="1000" x="0" y="0" rx="350" ry="350"></rect></clipPath></defs><g><g fill="#d13a1e" transform="matrix(2.7105882352941175,0,0,2.7105882352941175,7.092241263389596,113.4857614292818)" stroke="#000000" stroke-width="0.2"><path d="M6.69-4.82L4.50-4.82L4.50 0L1.07 0L1.07-14.22L6.75-14.22Q8.38-14.22 9.63-13.62Q10.89-13.02 11.58-11.91Q12.27-10.80 12.27-9.39L12.27-9.39Q12.27-7.31 10.78-6.07Q9.29-4.82 6.69-4.82L6.69-4.82ZM4.50-11.57L4.50-7.47L6.75-7.47Q7.74-7.47 8.27-7.97Q8.79-8.47 8.79-9.38L8.79-9.38Q8.79-10.37 8.25-10.97Q7.71-11.56 6.79-11.57L6.79-11.57L4.50-11.57ZM19.47-2.97L19.47-2.97Q19.47-3.39 19.03-3.64Q18.59-3.90 17.36-4.17Q16.13-4.44 15.33-4.89Q14.53-5.33 14.11-5.97Q13.69-6.60 13.69-7.42L13.69-7.42Q13.69-8.88 14.89-9.82Q16.09-10.76 18.04-10.76L18.04-10.76Q20.13-10.76 21.40-9.81Q22.67-8.87 22.67-7.32L22.67-7.32L19.37-7.32Q19.37-8.59 18.03-8.59L18.03-8.59Q17.51-8.59 17.16-8.31Q16.81-8.02 16.81-7.59L16.81-7.59Q16.81-7.15 17.24-6.88Q17.67-6.60 18.61-6.43Q19.55-6.25 20.26-6.01L20.26-6.01Q22.65-5.19 22.65-3.07L22.65-3.07Q22.65-1.62 21.36-0.71Q20.08 0.20 18.04 0.20L18.04 0.20Q16.68 0.20 15.62-0.29Q14.55-0.78 13.96-1.62Q13.36-2.46 13.36-3.39L13.36-3.39L16.44-3.39Q16.46-2.66 16.92-2.32Q17.39-1.98 18.13-1.98L18.13-1.98Q18.80-1.98 19.14-2.26Q19.47-2.53 19.47-2.97ZM26.74-10.57L28.41-4.61L30.17-10.57L33.69-10.57L29.38 1.77L29.20 2.22Q28.28 4.27 25.96 4.27L25.96 4.27Q25.31 4.27 24.60 4.07L24.60 4.07L24.60 1.72L25.03 1.72Q25.72 1.72 26.09 1.52Q26.46 1.32 26.63 0.80L26.63 0.80L26.89 0.10L23.22-10.57L26.74-10.57ZM42.49 0L39.98-5.02L38.13-5.02L38.13 0L34.70 0L34.70-14.22L40.29-14.22Q42.82-14.22 44.25-13.10Q45.67-11.97 45.67-9.92L45.67-9.92Q45.67-8.44 45.07-7.46Q44.47-6.48 43.19-5.88L43.19-5.88L46.16-0.15L46.16 0L42.49 0ZM38.13-11.57L38.13-7.67L40.29-7.67Q41.27-7.67 41.76-8.18Q42.26-8.69 42.26-9.61Q42.26-10.53 41.76-11.05Q41.26-11.57 40.29-11.57L40.29-11.57L38.13-11.57ZM52.71 0.20L52.71 0.20Q50.27 0.20 48.77-1.25Q47.27-2.71 47.27-5.03L47.27-5.03L47.27-5.30Q47.27-6.92 47.87-8.16Q48.47-9.40 49.62-10.08Q50.77-10.76 52.35-10.76L52.35-10.76Q54.58-10.76 55.87-9.38Q57.16-8.00 57.16-5.53L57.16-5.53L57.16-4.25L50.62-4.25Q50.79-3.36 51.39-2.85Q51.98-2.34 52.93-2.34L52.93-2.34Q54.49-2.34 55.37-3.44L55.37-3.44L56.88-1.66Q56.26-0.81 55.13-0.31Q54.00 0.20 52.71 0.20ZM52.33-8.22L52.33-8.22Q50.89-8.22 50.62-6.31L50.62-6.31L53.94-6.31L53.94-6.56Q53.96-7.35 53.54-7.79Q53.12-8.22 52.33-8.22ZM62.95-2.34L62.95-2.34Q63.64-2.34 64.02-2.72Q64.40-3.10 64.39-3.77L64.39-3.77L67.48-3.77Q67.48-2.03 66.24-0.92Q64.99 0.20 63.03 0.20L63.03 0.20Q60.72 0.20 59.39-1.25Q58.07-2.70 58.07-5.25L58.07-5.25L58.07-5.39Q58.07-6.99 58.66-8.22Q59.25-9.44 60.36-10.10Q61.47-10.76 63.00-10.76L63.00-10.76Q65.06-10.76 66.27-9.62Q67.48-8.48 67.48-6.52L67.48-6.52L64.39-6.52Q64.39-7.34 63.99-7.78Q63.59-8.22 62.92-8.22L62.92-8.22Q61.64-8.22 61.43-6.59L61.43-6.59Q61.36-6.07 61.36-5.17L61.36-5.17Q61.36-3.57 61.74-2.96Q62.12-2.34 62.95-2.34Z"></path></g></g></svg></svg></g></g></svg></g></svg>